<svg width="121" height="572" viewBox="0 0 121 572" fill="none" xmlns="http://www.w3.org/2000/svg">
<path d="M25.375 540.312L28.8125 540.312L28.8125 571.625L25.375 571.625L25.375 540.312ZM7.125 559.125L7.125 555.687L76.8125 555.687C80.7708 555.687 83.7708 555.229 85.8125 554.312C87.8125 553.354 89.1667 552.104 89.875 550.562C90.5417 548.979 90.875 547.292 90.875 545.5C90.875 544.208 90.8333 543.062 90.75 542.062C90.625 541.062 90.4792 539.979 90.3125 538.812L93.5 538.25C93.7917 539.167 93.9792 540.354 94.0625 541.812C94.1875 543.271 94.25 544.437 94.25 545.312C94.25 548.187 93.75 550.667 92.75 552.75C91.7083 554.792 89.9167 556.375 87.375 557.5C84.8333 558.583 81.3125 559.125 76.8125 559.125L7.125 559.125ZM37.125 519.375L93 519.375L93 522.75L25.375 522.75L25.375 519.375L37.125 519.375ZM24.8125 492.562L27.8125 492.937C27.7292 493.604 27.6458 494.312 27.5625 495.062C27.4792 495.771 27.4375 496.521 27.4375 497.312C27.4375 501.104 28.2083 504.437 29.75 507.312C31.2917 510.146 33.4167 512.521 36.125 514.437C38.8333 516.312 41.9583 517.729 45.5 518.687C49 519.604 52.75 520.062 56.75 520.062L56.9375 522.312C52.1875 522.312 47.8125 521.812 43.8125 520.812C39.8125 519.771 36.3542 518.229 33.4375 516.187C30.4792 514.104 28.1875 511.5 26.5625 508.375C24.9375 505.208 24.125 501.521 24.125 497.312C24.125 496.271 24.1875 495.354 24.3125 494.562C24.4375 493.771 24.6042 493.104 24.8125 492.562ZM25.375 475.687L93 475.687L93 479.062L25.375 479.062L25.375 475.687ZM4.25 480.812C3.29166 480.812 2.47916 480.479 1.8125 479.812C1.10416 479.146 0.749996 478.333 0.749996 477.375C0.749996 476.417 1.10416 475.604 1.8125 474.937C2.47916 474.229 3.29166 473.875 4.25 473.875C5.20833 473.875 6.02083 474.229 6.6875 474.937C7.35416 475.604 7.6875 476.417 7.6875 477.375C7.6875 478.333 7.35416 479.146 6.6875 479.812C6.02083 480.479 5.20833 480.812 4.25 480.812ZM80.3125 411.062L45.375 411.062C41.625 411.062 38.4167 411.875 35.75 413.5C33.0833 415.083 31.0417 417.417 29.625 420.5C28.2083 423.542 27.5 427.271 27.5 431.687C27.5 435.771 28.2292 439.458 29.6875 442.75C31.1042 446 33.0625 448.583 35.5625 450.5C38.0625 452.375 40.875 453.312 44 453.312L43.875 456.687C41.25 456.687 38.75 456.083 36.375 454.875C34 453.625 31.8958 451.896 30.0625 449.687C28.2292 447.437 26.7917 444.792 25.75 441.75C24.6667 438.667 24.125 435.312 24.125 431.687C24.125 426.979 24.9167 422.833 26.5 419.25C28.0833 415.625 30.4583 412.792 33.625 410.75C36.7917 408.708 40.75 407.687 45.5 407.687L79.375 407.687C81.7917 407.687 84.2292 407.542 86.6875 407.25C89.1458 406.917 91.0625 406.479 92.4375 405.937L93 405.937L93 409.812C91.375 410.229 89.4167 410.542 87.125 410.75C84.7917 410.958 82.5208 411.062 80.3125 411.062ZM55.25 409.562L58.6875 409.437L58.6875 427.062C58.6875 431.437 59.125 435.354 60 438.812C60.8333 442.271 62.0208 445.208 63.5625 447.625C65.1042 450.042 66.9375 451.896 69.0625 453.187C71.1875 454.479 73.5417 455.125 76.125 455.125C78.8333 455.125 81.3125 454.396 83.5625 452.937C85.8125 451.437 87.6042 449.375 88.9375 446.75C90.2708 444.125 90.9375 441.104 90.9375 437.687C90.9375 432.937 90.1667 428.729 88.625 425.062C87.0417 421.396 84.8333 418.292 82 415.75C79.1667 413.208 75.8125 411.271 71.9375 409.937L75.0625 408.437C77.3958 409.229 79.7083 410.417 82 412C84.25 413.542 86.3125 415.521 88.1875 417.937C90.0208 420.354 91.5 423.208 92.625 426.5C93.7083 429.75 94.25 433.479 94.25 437.687C94.25 441.896 93.4792 445.562 91.9375 448.687C90.3542 451.812 88.1875 454.229 85.4375 455.937C82.6458 457.646 79.4583 458.5 75.875 458.5C72.875 458.5 70.125 457.792 67.625 456.375C65.0833 454.958 62.8958 452.917 61.0625 450.25C59.1875 447.542 57.75 444.25 56.75 440.375C55.75 436.5 55.25 432.125 55.25 427.25L55.25 409.562ZM25.375 340.687L25.375 337.25L92.0625 337.25C97.8125 337.25 102.792 338.271 107 340.312C111.25 342.354 114.521 345.292 116.812 349.125C119.104 352.917 120.25 357.479 120.25 362.812C120.25 366.104 119.771 369.125 118.812 371.875C117.854 374.583 116.5 377.042 114.75 379.25C113.042 381.417 111.083 383.312 108.875 384.937L106.625 382.562C109.917 379.937 112.458 377.062 114.25 373.937C116.042 370.771 116.937 367.104 116.937 362.937C116.937 358.021 115.917 353.917 113.875 350.625C111.833 347.333 108.937 344.854 105.187 343.187C101.479 341.521 97.1042 340.687 92.0625 340.687L40.25 340.687L25.375 340.687ZM59.8125 389.062L58.5 389.062C53.1667 389.062 48.3958 388.5 44.1875 387.375C39.9375 386.208 36.3333 384.542 33.375 382.375C30.375 380.167 28.0833 377.479 26.5 374.312C24.9167 371.146 24.125 367.562 24.125 363.562C24.125 359.896 24.6875 356.625 25.8125 353.75C26.9375 350.833 28.5208 348.292 30.5625 346.125C32.5625 343.958 34.9167 342.167 37.625 340.75C40.3333 339.333 43.2708 338.25 46.4375 337.5L74 337.5C76.6667 338.042 79.2292 339 81.6875 340.375C84.1042 341.708 86.2708 343.479 88.1875 345.687C90.0625 347.854 91.5417 350.437 92.625 353.437C93.7083 356.437 94.25 359.854 94.25 363.687C94.25 367.687 93.4375 371.271 91.8125 374.437C90.1458 377.562 87.7917 380.208 84.75 382.375C81.7083 384.542 78.0833 386.208 73.875 387.375C69.6667 388.5 64.9792 389.062 59.8125 389.062ZM58.5 385.625L59.8125 385.625C64.3125 385.625 68.4583 385.187 72.25 384.312C76.0417 383.396 79.3333 382.042 82.125 380.25C84.875 378.417 87.0208 376.125 88.5625 373.375C90.1042 370.625 90.875 367.417 90.875 363.75C90.875 359 90.0417 354.979 88.375 351.687C86.7083 348.396 84.4792 345.771 81.6875 343.812C78.8958 341.854 75.8125 340.5 72.4375 339.75L48.6875 339.75C46.6042 340.208 44.3542 340.917 41.9375 341.875C39.4792 342.833 37.1667 344.208 35 346C32.7917 347.792 31 350.125 29.625 353C28.2083 355.833 27.5 359.375 27.5 363.625C27.5 367.333 28.2708 370.583 29.8125 373.375C31.3542 376.125 33.5208 378.417 36.3125 380.25C39.0625 382.042 42.3333 383.396 46.125 384.312C49.875 385.187 54 385.625 58.5 385.625ZM94.25 291.312C94.25 295.437 93.4375 299.292 91.8125 302.875C90.1458 306.458 87.8125 309.604 84.8125 312.312C81.8125 315.021 78.2708 317.146 74.1875 318.687C70.0625 320.187 65.5417 320.937 60.625 320.937L57.875 320.937C52.9167 320.937 48.3958 320.208 44.3125 318.75C40.1875 317.25 36.625 315.208 33.625 312.625C30.5833 310 28.25 306.979 26.625 303.562C24.9583 300.146 24.125 296.479 24.125 292.562C24.125 288.812 24.8333 285.375 26.25 282.25C27.625 279.125 29.5833 276.417 32.125 274.125C34.6667 271.792 37.7083 270 41.25 268.75C44.7917 267.5 48.7083 266.875 53 266.875L56.9375 266.875L56.9375 318.75L53.5625 318.75L53.5625 270.25L52.75 270.25C48.2083 270.25 44.0417 271.167 40.25 273C36.4167 274.833 33.3333 277.417 31 280.75C28.6667 284.083 27.5 288.021 27.5 292.562C27.5 296.312 28.2917 299.729 29.875 302.812C31.4583 305.854 33.6458 308.479 36.4375 310.687C39.1875 312.896 42.3958 314.604 46.0625 315.812C49.7292 316.979 53.6667 317.562 57.875 317.562L60.625 317.562C64.8333 317.562 68.7708 316.896 72.4375 315.562C76.1042 314.229 79.3333 312.375 82.125 310C84.875 307.625 87.0417 304.854 88.625 301.687C90.1667 298.479 90.9375 295.021 90.9375 291.312C90.9375 287.437 90.2917 283.833 89 280.5C87.7083 277.125 85.25 274.042 81.625 271.25L83.3125 268.875C85.4375 270.375 87.3333 272.187 89 274.312C90.625 276.396 91.9167 278.854 92.875 281.687C93.7917 284.479 94.25 287.687 94.25 291.312Z" fill="#333333"/>
<path d="M1.99999 247.5L1.99999 235.812L76.1875 206L1.99998 176.25L1.99998 164.5L93 201.5L93 210.625L1.99999 247.5ZM1.99999 251.312L1.99999 241L57.5 239.312L93 239.312L93 251.312L1.99999 251.312ZM1.99998 171.062L1.99998 160.75L93 160.75L93 172.75L57.5 172.75L1.99998 171.062ZM83.1875 81.75L93 81.75L93 129.937L83.1875 129.937L83.1875 81.75ZM1.99998 127.5L93 127.5L93 139.562L1.99998 139.562L1.99998 127.5ZM41.125 88.125L50.9375 88.125L50.9375 129.937L41.125 129.937L41.125 88.125ZM1.99998 82.375L11.875 82.375L11.875 129.937L1.99998 129.937L1.99998 82.375ZM93 42.1875L93 61.1875L83.1875 61.0625L83.1875 42.1875C83.1875 35.6875 81.8333 30.2708 79.125 25.9375C76.375 21.6042 72.5416 18.3542 67.625 16.1875C62.6666 13.9792 56.875 12.875 50.25 12.875L44.6875 12.875C39.4791 12.875 34.8541 13.5 30.8125 14.75C26.7291 16 23.2916 17.8333 20.5 20.25C17.6666 22.6667 15.5208 25.625 14.0625 29.125C12.6041 32.5833 11.875 36.5625 11.875 41.0625L11.875 61.5625L1.99998 61.5625L1.99998 41.0625C1.99998 35.1042 2.99998 29.6667 4.99998 24.75C6.95831 19.8333 9.81248 15.6042 13.5625 12.0625C17.2708 8.47916 21.7708 5.72916 27.0625 3.8125C32.3125 1.89583 38.2291 0.937497 44.8125 0.937497L50.25 0.937497C56.8333 0.937496 62.7708 1.89583 68.0625 3.8125C73.3125 5.72916 77.7916 8.5 81.5 12.125C85.2083 15.7083 88.0625 20.0417 90.0625 25.125C92.0208 30.1667 93 35.8542 93 42.1875ZM1.99998 54.75L93 54.75L93 66.8125L1.99998 66.8125L1.99998 54.75Z" fill="#064E54"/>
</svg>
